<?xml version="1.0" encoding="iso-8859-1"?>
<!-- Generator: Adobe Illustrator 19.0.0, SVG Export Plug-In . SVG Version: 6.00 Build 0)  -->
<svg version="1.1" id="Capa_1" xmlns="http://www.w3.org/2000/svg" xmlns:xlink="http://www.w3.org/1999/xlink" x="0px" y="0px"
	 viewBox="0 0 439.38 439.38" style="enable-background:new 0 0 439.38 439.38;" xml:space="preserve">
<g>
	<g>
		<g>
			<rect x="177.633" y="167.184" style="fill:#00EFD1;" width="227.788" height="105.012"/>
			<rect x="177.633" y="334.367" style="fill:#00ACEA;" width="175.543" height="105.012"/>
			<rect x="177.633" style="fill:#D4E1F4;" width="175.543" height="105.012"/>
		</g>
		<g>
			<g>
				<polygon style="fill:#083863;" points="89.861,184.424 68.963,184.424 68.963,80.98 89.861,80.457 				"/>
				<rect x="68.963" y="258.09" style="fill:#083863;" width="20.898" height="103.967"/>
			</g>
			<g>
				<path style="fill:#00ACEA;" d="M269.584,47.02h-60.082c-5.771,0-10.449-4.678-10.449-10.449s4.678-10.449,10.449-10.449h60.082
					c5.771,0,10.449,4.678,10.449,10.449S275.354,47.02,269.584,47.02z"/>
				<path style="fill:#00ACEA;" d="M321.829,78.367H209.502c-5.771,0-10.449-4.678-10.449-10.449s4.678-10.449,10.449-10.449
					h112.327c5.771,0,10.449,4.678,10.449,10.449S327.599,78.367,321.829,78.367z"/>
			</g>
			<g>
				<path style="fill:#00CEB4;" d="M269.584,214.204h-60.082c-5.771,0-10.449-4.678-10.449-10.449
					c0-5.771,4.678-10.449,10.449-10.449h60.082c5.771,0,10.449,4.678,10.449,10.449
					C280.033,209.526,275.354,214.204,269.584,214.204z"/>
				<path style="fill:#00CEB4;" d="M321.829,245.551H209.502c-5.771,0-10.449-4.678-10.449-10.449s4.678-10.449,10.449-10.449
					h112.327c5.771,0,10.449,4.678,10.449,10.449S327.599,245.551,321.829,245.551z"/>
			</g>
			<g>
				<path style="fill:#00EFD1;" d="M269.584,381.388h-60.082c-5.771,0-10.449-4.678-10.449-10.449
					c0-5.771,4.678-10.449,10.449-10.449h60.082c5.771,0,10.449,4.678,10.449,10.449
					C280.033,376.71,275.354,381.388,269.584,381.388z"/>
				<path style="fill:#00EFD1;" d="M321.829,412.735H209.502c-5.771,0-10.449-4.678-10.449-10.449s4.678-10.449,10.449-10.449
					h112.327c5.771,0,10.449,4.678,10.449,10.449S327.599,412.735,321.829,412.735z"/>
			</g>
		</g>
	</g>
	<path style="fill:#00ACEA;" d="M79.412,347.429c-25.103,0-45.453,20.35-45.453,45.453c0,25.103,20.35,45.453,45.453,45.453
		s45.453-20.35,45.453-45.453C124.865,367.779,104.515,347.429,79.412,347.429z"/>
	<path style="fill:#00EFD1;" d="M79.412,173.976c-25.103,0.011-45.444,20.37-45.433,45.473
		c0.011,25.087,20.346,45.422,45.433,45.433c25.103,0,45.453-20.35,45.453-45.453S104.515,173.975,79.412,173.976L79.412,173.976z"
		/>
	<path style="fill:#D4E1F4;" d="M79.412,0.522c-25.103,0-45.453,20.35-45.453,45.453s20.35,45.453,45.453,45.453
		c25.189,0.002,45.689-20.266,45.976-45.453C125.102,20.788,104.601,0.521,79.412,0.522z"/>
</g>
<g>
</g>
<g>
</g>
<g>
</g>
<g>
</g>
<g>
</g>
<g>
</g>
<g>
</g>
<g>
</g>
<g>
</g>
<g>
</g>
<g>
</g>
<g>
</g>
<g>
</g>
<g>
</g>
<g>
</g>
</svg>
